MoBL_ARMS_module2_4_allmuscles_wrist_states		
version=1		
nRows=248		
nColumns=3		
inDegrees=yes		
		
# SIMM Motion File Header:		
name MoBL_ARMS_module2_4_allmuscles_wrist_states		
datacolumns 3		
datarows 248		
otherdata 1		
range 0 0.426555743		
endheader		
time	deviation	flexion
0	10.63999924	-22.41300037
0.000756674	10.63939746	-22.40924479
0.001513349	10.63770626	-22.39808432
0.002431706	10.63434184	-22.37511468
0.003350062	10.62950631	-22.3428523
0.004996757	10.61723558	-22.26562133
0.006643451	10.60111108	-22.16923093
0.008290145	10.58244325	-22.05999734
0.010053649	10.56112669	-21.9356772
0.011817153	10.53972464	-21.81057685
0.013355963	10.52219372	-21.70553663
0.014894773	10.50713298	-21.60802106
0.016912603	10.49291595	-21.49687472
0.018930432	10.48601367	-21.41052143
0.020948262	10.48667796	-21.35382251
0.023616384	10.49914996	-21.32906053
0.027248279	10.53784009	-21.38834212
0.031121953	10.6085582	-21.55771245
0.034995628	10.7112992	-21.81222566
0.036955382	10.77522326	-21.96448657
0.038854091	10.84419493	-22.12272643
0.040511165	10.90948957	-22.26725169
0.042168239	10.97894176	-22.41606138
0.043825313	11.05191932	-22.5677264
0.045482387	11.12774882	-22.72091873
0.04713946	11.20575628	-22.87441468
0.048796534	11.28532028	-23.02716635
0.050809828	11.38331171	-23.21054436
0.052373668	11.45995382	-23.35063274
0.053937508	11.53672489	-23.48826286
0.055859473	11.63090185	-23.65373411
0.057537183	11.71270158	-23.79475145
0.059214892	11.79394509	-23.9326077
0.060892601	11.87452098	-24.067429
0.062570311	11.95436591	-24.19940563
0.06424802	12.03345785	-24.32877281
0.065925729	12.1118115	-24.4557769
0.067603439	12.18947224	-24.58066034
0.069281148	12.26650995	-24.7036606
0.070958858	12.34301335	-24.82499978
0.072636567	12.41908319	-24.94488259
0.074314276	12.49482532	-25.06349679
0.075991986	12.57034392	-25.1810142
0.077669695	12.6457364	-25.29759098
0.079347405	12.72109015	-25.41336673
0.081025114	12.79647825	-25.52846189
0.08304576	12.88740246	-25.66631681
0.084528422	12.95424594	-25.76699375
0.086011084	13.02122115	-25.86727745
0.087993115	13.11098278	-26.00068339
0.089975146	13.20102442	-26.13322475
0.091401357	13.26599725	-26.22795318
0.092827568	13.33112725	-26.32203881
0.094874903	13.42490593	-26.45577667
0.096695819	13.50860544	-26.57320319
0.098516736	13.5925953	-26.68899243
0.100092294	13.66553003	-26.78770275
0.101667851	13.73875162	-26.88488832
0.103243409	13.81231663	-26.98035883
0.105324848	13.91015368	-27.10333746
0.106946033	13.98699841	-27.19601019
0.108567217	14.06453479	-27.2852031
0.110188401	14.14287781	-27.37008545
0.112154565	14.23910728	-27.46592624
0.113781231	14.31979289	-27.53821295
0.115407896	14.40145151	-27.60320902
0.117034562	14.4840237	-27.66014882
0.118661227	14.5673941	-27.70840947
0.120721912	14.67389994	-27.75635974
0.122225406	14.75202557	-27.78169669
0.1237289	14.83031793	-27.79871157
0.12569866	14.93287233	-27.80825707
0.127668421	15.03510668	-27.80326374
0.129089617	15.10851773	-27.79062587
0.130510814	15.18154342	-27.7704312
0.132559337	15.28600937	-27.72807717
0.134389306	15.37845616	-27.67708998
0.136219275	15.47003466	-27.61379267
0.13778224	15.54755226	-27.55007934
0.139345204	15.62442208	-27.47758488
0.141246724	15.71707092	-27.37774131
0.142940594	15.79880085	-27.27825656
0.144634464	15.87978044	-27.16907702
0.146328334	15.96001452	-27.05044705
0.148022205	16.03950784	-26.92261417
0.149716075	16.1182621	-26.78580931
0.151409945	16.19627417	-26.64022818
0.153103816	16.27353776	-26.48602752
0.154797686	16.35004819	-26.3233313
0.156491556	16.42580751	-26.15224198
0.158185426	16.50082951	-25.97286212
0.159879297	16.57514442	-25.78532429
0.161573167	16.64879827	-25.58982702
0.163267037	16.7218261	-25.38670647
0.164690622	16.78258804	-25.21052314
0.166114207	16.84234437	-25.02973822
0.168329411	16.93229304	-24.73963881
0.170084101	17.00044672	-24.50226133
0.171838791	17.06579173	-24.2580561
0.173593481	17.12847611	-24.00681856
0.175348171	17.18874729	-23.74824353
0.176639117	17.23171161	-23.55310614
0.178325714	17.28626588	-23.29162765
0.180697101	17.36031206	-22.91092665
0.182296887	17.40871585	-22.64519766
0.183896674	17.45597459	-22.37216257
0.185496461	17.50212751	-22.09177434
0.187525598	17.55910103	-21.72567465
0.189143736	17.60328588	-21.42558994
0.190761875	17.64633951	-21.11852679
0.192380013	17.68821225	-20.80467349
0.194351493	17.73752688	-20.41338943
0.195977541	17.77669324	-20.08357234
0.197603589	17.81441004	-19.74757537
0.199229637	17.85060852	-19.40559618
0.200855686	17.88523274	-19.05781624
0.202919335	17.92683988	-18.60835776
0.204421625	17.95544972	-18.27565111
0.205923914	17.98262126	-17.93843955
0.2078958	18.01607437	-17.48918088
0.209867687	18.0469839	-17.03262632
0.211286854	18.06763198	-16.69967633
0.212706022	18.08692163	-16.3631848
0.21476025	18.11240005	-15.87006927
0.216593083	18.13277623	-15.4244668
0.218425915	18.15117421	-14.97419468
0.2199832	18.16541259	-14.5884333
0.221540486	18.17845256	-14.20012262
0.22345043	18.19284884	-13.72082339
0.22514479	18.20413373	-13.29312333
0.226839149	18.21396239	-12.86329214
0.228533509	18.22226894	-12.4314655
0.230227869	18.22898796	-11.99773032
0.231922229	18.23405348	-11.56214833
0.233616588	18.23740009	-11.12476535
0.235310948	18.23897271	-10.68561567
0.237005308	18.23872911	-10.24472395
0.238699668	18.23663999	-9.802104957
0.240394027	18.23268692	-9.357761562
0.242088387	18.2268601	-8.911684879
0.243782747	18.21923606	-8.463818013
0.245477106	18.2099413	-8.014087268
0.247171466	18.19892255	-7.562543635
0.248865826	18.18613973	-7.109254007
0.250560186	18.1715663	-6.65429204
0.252254545	18.15518801	-6.197731977
0.253948905	18.13700139	-5.739649695
0.255643265	18.11701239	-5.280127915
0.257337625	18.09523455	-4.819259513
0.259031984	18.07168646	-4.35714951
0.260726344	18.04638925	-3.893915858
0.262420704	18.01936516	-3.429689039
0.264115063	17.9906385	-2.964608093
0.265809423	17.96023829	-2.4988178
0.267503783	17.92819814	-2.03246582
0.269198143	17.89455395	-1.565697778
0.270892502	17.85935234	-1.098655074
0.272586862	17.82264997	-0.631474362
0.274281222	17.78450528	-0.164292451
0.275975582	17.74496963	0.302748506
0.277669941	17.70408402	0.769499047
0.279364301	17.66188206	1.235804806
0.281058661	17.61839388	1.70150992
0.282753021	17.57364767	2.166460146
0.28444738	17.52767115	2.630505945
0.28614174	17.48049155	3.093504946
0.2878361	17.43213624	3.555325179
0.289530459	17.38262784	4.015838904
0.290731547	17.34684125	4.341426282
0.291932634	17.31050648	4.666252799
0.293441878	17.2640717	5.073271512
0.298210333	17.11144651	6.349986296
0.300503974	17.03470705	6.958612647
0.301882192	16.98750674	7.322503213
0.30326041	16.93945489	7.684982799
0.305490488	16.85979372	8.268451387
0.307355647	16.79121941	8.75349633
0.309023977	16.72826065	9.185061249
0.310692306	16.66367974	9.614460446
0.312360635	16.59741786	10.04170628
0.314028965	16.52944815	10.46682218
0.315697294	16.4597619	10.88984086
0.317365623	16.38835863	11.31080241
0.319033953	16.31524149	11.72975049
0.320702282	16.24041669	12.14673036
0.322370611	16.16389222	12.56178547
0.324402309	16.06842462	13.06469775
0.325884493	15.99721939	13.42985599
0.327366677	15.92471226	13.7935734
0.329353532	15.82549711	14.27889392
0.331340387	15.72399285	14.76166178
0.332758648	15.6501474	15.10471024
0.334176908	15.57514764	15.44645024
0.336238149	15.46410078	15.94076609
0.33806615	15.36361429	16.3767769
0.339894151	15.2612735	16.81051586
0.341460571	15.17213097	17.1803484
0.34302699	15.08168294	17.5484556
0.344923453	14.97047364	17.99177542
0.346616948	14.86963064	18.38543582
0.348310443	14.7673671	18.77696436
0.350003938	14.66367913	19.16631148
0.351697433	14.55846975	19.55339342
0.353390928	14.45152761	19.93807776
0.355084422	14.34259718	20.32020976
0.356777917	14.23143919	20.69963773
0.358471412	14.11788317	21.07623878
0.360164907	14.00187204	21.44994051
0.361858402	13.88345159	21.82072083
0.362302094	13.85202737	21.9173785
0.362745787	13.82042636	22.01382914
0.364964251	13.65972642	22.4929298
0.366842128	13.51991501	22.89420855
0.368491313	13.39384721	23.24317379
0.370140499	13.26429003	23.58871146
0.371789685	13.13087738	23.93064087
0.373438871	12.99339677	24.26885254
0.375088056	12.85191884	24.60336889
0.377081201	12.67611833	25.00296889
0.378623948	12.53697373	25.30904115
0.380166694	12.39560044	25.61257842
0.382063648	12.2191737	25.98270356
0.383960602	12.04024055	26.34981965
0.385470407	11.89616722	26.64014255
0.386980213	11.75066284	26.92903849
0.388888857	11.56474677	27.29255838
0.390797502	11.37686788	27.65465404
0.392324277	11.22544569	27.94363831
0.393851052	11.07325943	28.23232439
0.395742768	10.8838809	28.58997071
0.397634485	10.69373137	28.94795078
0.39917194	10.53858342	29.23937208
0.400709395	10.38274701	29.53138107
0.402246851	10.22604078	29.82409609
0.404444562	10.00022252	30.2439413
0.405956731	9.843505883	30.53391287
0.407468901	9.685709218	30.82485303
0.409475273	9.47475291	31.212458
0.411223252	9.289547229	31.55166699
0.412971232	9.103013095	31.89230729
0.414719211	8.915057495	32.23434316
0.416467191	8.725521179	32.57768575
0.41821517	8.534203797	32.92219281
0.419786062	8.360583149	33.23263032
0.421356955	8.18524488	33.54366967
0.422927847	8.008116085	33.85510294
0.424981619	7.773795301	34.26248826
0.426555743	7.59211212	34.57460633
